<?xml version="1.0" encoding="UTF-8"?>
<svg id="_レイヤー_2" data-name="レイヤー 2" xmlns="http://www.w3.org/2000/svg" viewBox="0 0 826.24 111.5">
  <g id="_レイヤー_1-2" data-name="レイヤー 1">
    <g>
      <path d="M160.93,6.49c-5,.4-10.33,1.15-15.89,2.19,13.45,2.64,13.2,12.83-1.54,26.42C135.29,14.54,115.2,0,91.71,0c-30.79,0-55.75,24.96-55.75,55.75,0,7.28,1.41,14.23,3.95,20.61-.13-1.31-.2-2.65-.2-4,0-21.72,17.6-39.32,39.32-39.32,15.54,0,28.94,9.04,35.32,22.13-23.61,12.9-52.2,22.83-72.97,24.5-17.61,1.42-25.46-3.44-23.02-12.01-29.09,25.51-23.23,43.19,14.91,40.12,23.81-1.92,54.88-11.5,83.6-24.76-4.1,14.54-16.36,25.64-31.52,28.1,2.09.24,4.21.37,6.36.37,26.7,0,49-18.77,54.46-43.84,8.84-5.26,17.01-10.78,24.11-16.42,35.25-27.97,31.06-48.01-9.35-44.75Z"/>
      <g>
        <polygon points="412.06 3.75 342.86 3.75 342.86 21.97 369.33 21.97 369.33 108.09 385.59 108.09 385.59 21.97 412.06 21.97 412.06 3.75"/>
        <path d="M480.48,3.02h-14.63l-37.25,105.07h16.59l8.58-24.84h38.42l8.46,24.84h17.07L480.66,3.5l-.17-.49ZM486.32,65.77h-26.66l13.28-38.18,13.39,38.18Z"/>
        <path d="M612.2,37.26v-.3c0-8.95-2.44-16.78-7.08-22.66-5.73-6.91-14.25-10.55-24.65-10.55h-37.94v104.34h16.14v-35.86h17.2l20.3,35.49.21.37h19.11l-22.73-39.29c12.55-4.82,19.45-15.98,19.45-31.54ZM595.83,37.99v.3c0,10-6.45,16.46-16.43,16.46h-20.73V21.68h20.61c10.68,0,16.55,5.79,16.55,16.31Z"/>
        <path d="M720.28,63.7c0,17.91-7.19,27.78-20.25,27.78s-20.37-10.39-20.37-28.51V3.75h-16.14v59.96c0,29.23,13.22,46,36.27,46s36.62-17.09,36.62-46.88V3.75h-16.13v59.96Z"/>
        <path d="M793.79,3.75h-33.25v104.34h15.74v-33.06h15.84c20.73,0,34.12-14.07,34.12-35.86v-.3c0-21.34-12.74-35.12-32.46-35.12ZM776.28,21.68h16.32c10.97,0,17.27,6.43,17.27,17.63v.29c0,10.55-6.94,17.64-17.27,17.64h-16.32V21.68Z"/>
        <path d="M286.75,17.88c4.48,0,8.27,1.21,11.26,3.6,3.01,2.4,5.16,5.5,6.38,9.2l.24.72,15.63-5.71-.21-.67c-1.38-4.41-3.52-8.39-6.37-11.81-2.86-3.54-6.55-6.34-10.95-8.3-4.33-2.06-9.45-3.11-15.22-3.11-10.26,0-18.27,2.75-23.82,8.16-5.56,5.33-8.38,12.9-8.38,22.51,0,5.1.97,9.59,2.89,13.36,2,3.75,4.73,6.9,8.12,9.36,3.45,2.44,7.33,4.33,11.56,5.6l10.95,3.18c4.46,1.31,8.04,3.2,10.67,5.63,2.58,2.28,3.83,5.18,3.83,8.85,0,4.05-1.49,7.22-4.56,9.69-3.08,2.48-7.34,3.74-12.64,3.74-4.56-.09-8.44-1.45-11.52-4.02-3.1-2.59-5.21-5.64-6.26-9.05l-.23-.73-15.88,5.54.17.65c.78,3.05,2.14,6.05,4.06,8.92,1.98,2.74,4.47,5.27,7.41,7.53,3.03,2.26,6.53,4.05,10.41,5.32,3.96,1.27,8.36,1.92,13.09,1.92,6.96,0,12.95-1.29,17.78-3.84,4.95-2.56,8.73-6.17,11.26-10.71,2.51-4.52,3.79-9.8,3.79-15.69,0-6.7-2.28-12.89-6.79-18.39-4.49-5.49-10.87-9.42-18.97-11.67l-10.95-3.03c-3.61-1.03-6.51-2.53-8.59-4.44-1.97-1.97-2.97-4.76-2.97-8.3,0-4.4,1.29-7.87,3.84-10.3,2.65-2.46,6.34-3.71,10.96-3.71Z"/>
      </g>
    </g>
  </g>
</svg>